<svg width="100" height="100" viewBox="0 0 100 100" fill="none" xmlns="http://www.w3.org/2000/svg">
<path d="M50 96C75.4051 96 96 75.4051 96 50C96 24.5949 75.4051 4 50 4C24.5949 4 4 24.5949 4 50C4 75.4051 24.5949 96 50 96Z" stroke="#81C384" stroke-width="8"/>
<path d="M55.4653 49.6909C58.9207 50.4966 61.3467 51.4723 62.7432 52.6182C64.7484 54.2474 65.751 56.36 65.751 58.9561C65.751 61.6953 64.6499 63.9601 62.4478 65.7505C59.7443 67.9168 55.8145 69 50.6582 69H32.1548V68.0063C33.8377 68.0063 34.9746 67.8542 35.5654 67.5498C36.1742 67.2275 36.5949 66.8158 36.8276 66.3145C37.0783 65.8132 37.2036 64.5778 37.2036 62.6084V38.9756C37.2036 37.0062 37.0783 35.7708 36.8276 35.2695C36.5949 34.7503 36.1742 34.3385 35.5654 34.0342C34.9567 33.7298 33.8198 33.5776 32.1548 33.5776V32.584H49.6108C53.7824 32.584 56.7365 32.96 58.4731 33.7119C60.2098 34.446 61.5794 35.556 62.582 37.042C63.5846 38.5101 64.0859 40.0767 64.0859 41.7417C64.0859 43.4963 63.4504 45.0628 62.1792 46.4414C60.908 47.8021 58.6701 48.8853 55.4653 49.6909ZM45.6899 48.9658C48.2323 48.9658 50.1032 48.6794 51.3027 48.1064C52.5202 47.5335 53.4512 46.7279 54.0957 45.6895C54.7402 44.651 55.0625 43.3262 55.0625 41.7148C55.0625 40.1035 54.7402 38.7876 54.0957 37.7671C53.4691 36.7287 52.5649 35.9409 51.3833 35.4038C50.2017 34.8667 48.3039 34.6071 45.6899 34.625V48.9658ZM45.6899 51.0605V62.7427L45.6631 64.0854C45.6631 65.0522 45.9048 65.7863 46.3882 66.2876C46.8895 66.771 47.6235 67.0127 48.5903 67.0127C50.0226 67.0127 51.3385 66.6994 52.5381 66.0728C53.7555 65.4282 54.6865 64.5062 55.3311 63.3066C55.9756 62.0892 56.2979 60.7375 56.2979 59.2515C56.2979 57.5506 55.904 56.0288 55.1162 54.686C54.3285 53.3254 53.2453 52.3765 51.8667 51.8394C50.4881 51.3022 48.4292 51.0426 45.6899 51.0605Z" fill="#81C384"/>
</svg>
