<svg width="100" height="100" viewBox="0 0 100 100" fill="none" xmlns="http://www.w3.org/2000/svg">
<circle cx="50" cy="50" r="46" stroke="#E57373" stroke-width="8"/>
<path d="M59.835 31.7515L60.1304 43.8901H59.0293C58.5101 40.8465 57.23 38.4027 55.189 36.5586C53.1659 34.6966 50.9727 33.7656 48.6094 33.7656C46.7832 33.7656 45.333 34.258 44.2588 35.2427C43.2025 36.2095 42.6743 37.3285 42.6743 38.5996C42.6743 39.4053 42.8623 40.1214 43.2383 40.748C43.7575 41.5895 44.59 42.422 45.7358 43.2456C46.5773 43.8364 48.5199 44.8838 51.5635 46.3877C55.8245 48.4824 58.6981 50.4608 60.1841 52.3228C61.6522 54.1847 62.3862 56.3153 62.3862 58.7144C62.3862 61.758 61.1956 64.3809 58.8145 66.583C56.4512 68.7673 53.4434 69.8594 49.791 69.8594C48.6452 69.8594 47.562 69.743 46.5415 69.5103C45.521 69.2775 44.2409 68.8389 42.7012 68.1943C41.8418 67.8363 41.1346 67.6572 40.5796 67.6572C40.1141 67.6572 39.6217 67.8363 39.1025 68.1943C38.5833 68.5524 38.1626 69.0985 37.8403 69.8325H36.8467V56.0825H37.8403C38.6281 59.9497 40.141 62.9038 42.3789 64.9448C44.6348 66.9679 47.0607 67.9795 49.6567 67.9795C51.6619 67.9795 53.2554 67.4334 54.437 66.3413C55.6366 65.2492 56.2363 63.978 56.2363 62.5278C56.2363 61.6685 56.0036 60.8359 55.5381 60.0303C55.0905 59.2246 54.4012 58.4637 53.4702 57.7476C52.5392 57.0135 50.8921 56.0646 48.5288 54.9009C45.2166 53.2716 42.8354 51.8841 41.3853 50.7383C39.9351 49.5924 38.8161 48.3123 38.0283 46.8979C37.2585 45.4836 36.8735 43.9259 36.8735 42.2251C36.8735 39.3247 37.9388 36.854 40.0693 34.813C42.1999 32.772 44.8854 31.7515 48.126 31.7515C49.3076 31.7515 50.4535 31.8947 51.5635 32.1812C52.4049 32.396 53.4255 32.7988 54.625 33.3896C55.8424 33.9626 56.6929 34.249 57.1763 34.249C57.6418 34.249 58.0088 34.1058 58.2773 33.8193C58.5459 33.5329 58.7965 32.8436 59.0293 31.7515H59.835Z" fill="#E57373"/>
</svg>
